# xmcd
#
# Track frame offsets:
#	150
#	15573
#	33010
#	43786
#	61707
#	81568
#	101725
#	121598
#	139639
#	156071
#	175497
#	195528
#	215336
#	230867
#
# Disc length: 3396 seconds
#
# Revision: 0
# Processed by: cddbd v1.5.1PL0 Copyright (c) Steve Scherf et al.
# Submitted via: EasyCDDAExtractor 4.6.9.1
#
DISCID=b60d420e
DTITLE=Faith Hill - Fireflies
DYEAR=2005
DGENRE=Country
TTITLE0=Sunshine and Summertime
TTITLE1=Mississippi Girl
TTITLE2=Dearly Beloved
TTITLE3=I Ain't Gonna Take It Anymore
TTITLE4=Stealing Kisses
TTITLE5=Fireflies
TTITLE6=Like We Never Loved At All
TTITLE7=I Want You
TTITLE8=The Lucky One
TTITLE9=If You Ask
TTITLE10=We've Got Nothing But Love To Prove
TTITLE11=You Stay With Me
TTITLE12=Wish For You
TTITLE13=Paris
EXTD=
EXTT0=
EXTT1=
EXTT2=
EXTT3=
EXTT4=
EXTT5=
EXTT6=
EXTT7=
EXTT8=
EXTT9=
EXTT10=
EXTT11=
EXTT12=
EXTT13=
PLAYORDER=
